<svg xmlns="http://www.w3.org/2000/svg" width="100" height="100" viewBox="0 0 100 100">
  <defs>
    <style>
      .cls-1 {
        fill: #ef4e4c;
      }

      .cls-2 {
        fill: #fff;
      }
    </style>
  </defs>
  <g id="spencer-davis-vJsj-hgOEG0-unsplash_Copy" data-name="spencer-davis-vJsj-hgOEG0-unsplash Copy" transform="translate(100) rotate(90)">
    <rect id="Mask" class="cls-1" width="100" height="100" rx="50" transform="translate(0 0)"/>
    <g id="Group_6" data-name="Group 6" transform="translate(56.612 61.396) rotate(90)">
      <path id="Combined_Shape" data-name="Combined Shape" class="cls-2" d="M-14.293,13.021a1,1,0,0,0,0-1.415l-3.95-3.949H-1a1,1,0,0,0,1-1,1,1,0,0,0-1-1H-18.242l3.949-3.949a1,1,0,0,0,0-1.415,1,1,0,0,0-1.414,0L-21.364,5.95a1,1,0,0,0,0,1.414l5.657,5.657a1,1,0,0,0,.707.293A1,1,0,0,0-14.293,13.021Z" transform="translate(0 0)"/>
    </g>
  </g>
</svg>
