<svg xmlns="http://www.w3.org/2000/svg" width="61" height="61" viewBox="0 0 61 61">
  <g id="instagram_copy" data-name="instagram copy" transform="translate(0.5 0.5)">
    <circle id="Oval_Copy" data-name="Oval Copy" cx="30" cy="30" r="30" fill="none" stroke="#fff" stroke-miterlimit="10" stroke-width="1" opacity="0.25"/>
    <g id="linkedin-big-logo-svgrepo-com" transform="translate(21 21)">
      <path id="Path" d="M2.471,0a2.471,2.471,0,1,0,2.47,2.47A2.475,2.475,0,0,0,2.471,0Z" fill="#fff"/>
      <path id="Path-2" data-name="Path" d="M4.069,0H.323A.322.322,0,0,0,0,.321V12.307a.322.322,0,0,0,.323.321H4.069a.322.322,0,0,0,.323-.321V.321A.322.322,0,0,0,4.069,0Z" transform="translate(0.549 6.039)" fill="#fff"/>
      <path id="Path-3" data-name="Path" d="M7.4,0A4.81,4.81,0,0,0,4.153,1.08V.457A.317.317,0,0,0,3.837.14H.316A.317.317,0,0,0,0,.457V12.31a.317.317,0,0,0,.316.317H3.983A.317.317,0,0,0,4.3,12.31V6.446c0-1.683.308-2.726,1.848-2.726,1.517,0,1.63,1.12,1.63,2.826V12.31a.317.317,0,0,0,.316.317h3.669a.317.317,0,0,0,.316-.317v-6.5C12.078,3.1,11.546,0,7.4,0Z" transform="translate(6.588 6.039)" fill="#fff"/>
    </g>
  </g>
</svg>
