<svg xmlns="http://www.w3.org/2000/svg" width="21.657" height="13.315" viewBox="0 0 21.657 13.315">
  <g id="Group_6" data-name="Group 6" transform="translate(21.657 13.314) rotate(90)">
    <path id="Combined_Shape" data-name="Combined Shape" d="M-14.293,13.021a1,1,0,0,0,0-1.415l-3.95-3.949H-1a1,1,0,0,0,1-1,1,1,0,0,0-1-1H-18.242l3.949-3.949a1,1,0,0,0,0-1.415,1,1,0,0,0-1.414,0L-21.364,5.95a1,1,0,0,0,0,1.414l5.657,5.657a1,1,0,0,0,.707.293A1,1,0,0,0-14.293,13.021Z" transform="translate(0 21.657) rotate(90)" fill="#000000"/>
  </g>
</svg>
